<svg width="100" height="75" viewBox="0 0 100 75" fill="none" xmlns="http://www.w3.org/2000/svg">
<path d="M98.9498 6.67417C97.8915 6.1575 97.4331 7.145 96.8165 7.64917C96.604 7.81167 96.4248 8.02417 96.2456 8.21584C94.6956 9.87 92.8873 10.9533 90.5248 10.8242C87.0706 10.6325 84.1206 11.7158 81.5123 14.3575C80.9581 11.0992 79.1165 9.1575 76.3165 7.9075C74.8498 7.2575 73.3665 6.61167 72.3373 5.19917C71.6206 4.195 71.4248 3.07417 71.0665 1.97417C70.8373 1.3075 70.6081 0.628333 69.8456 0.515833C69.0123 0.386666 68.6873 1.0825 68.3623 1.66583C67.0581 4.04917 66.554 6.67417 66.604 9.3325C66.7165 15.3158 69.2415 20.0825 74.2623 23.47C74.8331 23.8575 74.979 24.2492 74.7998 24.8158C74.4581 25.9825 74.0498 27.1158 73.6915 28.2867C73.4623 29.0325 73.1206 29.1908 72.3206 28.87C69.6175 27.7083 67.1621 26.0393 65.0873 23.9533C61.5165 20.5033 58.2915 16.695 54.2665 13.7117C53.3339 13.0226 52.3763 12.368 51.3956 11.7492C47.2915 7.76167 51.9373 4.48667 53.0123 4.09917C54.1373 3.69083 53.3998 2.29917 49.7665 2.31583C46.1331 2.3325 42.8081 3.545 38.5706 5.16583C37.9409 5.40713 37.2931 5.59801 36.6331 5.73667C32.6732 4.99056 28.6233 4.84727 24.6206 5.31167C16.7665 6.18667 10.4956 9.90333 5.88312 16.2408C0.341457 23.8575 -0.96271 32.5158 0.633124 41.5408C2.31229 51.0575 7.17062 58.9367 14.6331 65.095C22.3748 71.4825 31.2873 74.6117 41.4581 74.0117C47.6331 73.6575 54.5123 72.8283 62.2665 66.2617C64.2248 67.2367 66.2748 67.6242 69.6831 67.9158C72.3081 68.1617 74.8331 67.7908 76.7873 67.3825C79.8498 66.7325 79.6373 63.895 78.5331 63.3783C69.554 59.195 71.5248 60.8992 69.729 59.52C74.2956 54.12 81.1706 48.5117 83.8623 30.3408C84.0706 28.895 83.8915 27.9867 83.8623 26.82C83.8456 26.1117 84.0081 25.8325 84.8206 25.7533C87.0749 25.5195 89.2618 24.8471 91.2581 23.7742C97.0748 20.595 99.4248 15.3783 99.979 9.12C100.062 8.16167 99.9623 7.17833 98.9498 6.67417ZM48.254 62.9992C39.5498 56.1575 35.329 53.9033 33.5873 53.9992C31.954 54.0992 32.2498 55.9617 32.6081 57.1783C32.9831 58.3783 33.4706 59.2033 34.154 60.2575C34.629 60.9533 34.954 61.9908 33.6831 62.77C30.879 64.5033 26.0081 62.1867 25.779 62.0742C20.1081 58.7325 15.3623 54.3242 12.0248 48.295C8.79979 42.4908 6.92479 36.2658 6.61646 29.62C6.53312 28.0117 7.00396 27.445 8.60396 27.1533C10.7044 26.7514 12.8566 26.6965 14.9748 26.9908C23.8581 28.2908 31.4165 32.2617 37.7581 38.5492C41.3748 42.1325 44.1123 46.4117 46.9331 50.595C49.9331 55.0367 53.1581 59.27 57.2665 62.7367C58.7165 63.9533 59.8706 64.8783 60.979 65.5575C57.6373 65.9325 52.0623 66.0158 48.254 62.9992ZM52.4206 36.1658C52.4199 35.9589 52.4696 35.7548 52.5654 35.5713C52.6611 35.3878 52.8002 35.2304 52.9704 35.1127C53.1406 34.995 53.337 34.9205 53.5425 34.8956C53.7479 34.8707 53.9564 34.8963 54.1498 34.97C54.3963 35.0584 54.6091 35.2216 54.7584 35.4367C54.9078 35.6518 54.9864 35.9081 54.9831 36.17C54.9837 36.3392 54.9506 36.5068 54.8857 36.6631C54.8208 36.8194 54.7255 36.9612 54.6053 37.0802C54.4851 37.1993 54.3424 37.2932 54.1855 37.3566C54.0286 37.4199 53.8606 37.4514 53.6915 37.4492C53.5235 37.4497 53.3572 37.4168 53.2022 37.3523C53.0471 37.2878 52.9065 37.1931 52.7886 37.0735C52.6706 36.954 52.5777 36.8122 52.5152 36.6563C52.4528 36.5005 52.4179 36.3337 52.4206 36.1658ZM65.379 42.8158C64.5456 43.1533 63.7165 43.445 62.9206 43.4825C61.7233 43.5243 60.5485 43.1503 59.5956 42.4242C58.454 41.4658 57.6373 40.9325 57.2956 39.2658C57.1778 38.4514 57.2004 37.6227 57.3623 36.8158C57.654 35.4533 57.329 34.5783 56.3665 33.7867C55.5873 33.1367 54.5915 32.9575 53.4998 32.9575C53.126 32.9358 52.763 32.8243 52.4415 32.6325C51.9831 32.4075 51.6081 31.8408 51.9665 31.1408C52.0831 30.9158 52.6331 30.3658 52.7665 30.2658C54.2498 29.4242 55.9623 29.6992 57.5415 30.3325C59.0081 30.9325 60.1165 32.0325 61.7123 33.5908C63.3415 35.47 63.6373 35.9908 64.5665 37.3992C65.2998 38.5033 65.9665 39.6367 66.4206 40.9325C66.6998 41.745 66.3415 42.4075 65.379 42.8158Z" fill="#4D6BFE"/>
</svg>
