<svg xmlns="http://www.w3.org/2000/svg" width="2920" height="1040"><path fill="#3E99E5" d="M2064 540h800v95h-800v-95ZM64 540h800v95H64v-95Z"/><path fill="#3B9EE4" d="M2064 405h800v95h-800v-95ZM64 405h800v95H64v-95Z"/><path fill="#4391E7" d="M1064 811h800v94h-800v-94Z"/><path fill="#4095E6" d="M2064 676h800v94h-800v-94Z"/><path fill="#38A2E3" d="M2064 270h800v94h-800v-94Z"/><path fill="#36A7E2" d="M1064 135h800v94h-800v-94ZM64 135h800v94H64v-94Z"/><path fill="#33ABE1" d="M64 0h800v94H64V0Z"/><path fill="#4193E7" d="M2064 811h696v94h-696v-94Z"/><path fill="#34A9E1" d="M2064 135h696v94h-696v-94Z"/><path fill="#4391E7" d="M1064 946h592v94h-592v-94ZM1272 676h592v94h-592v-94Z"/><path fill="#36A7E2" d="M1064 270h592v94h-592v-94ZM1272 0h592v94h-592V0Z"/><path fill="#3F97E6" d="M1272 540h488v95h-488v-95Z"/><path fill="#3AA0E3" d="M1168 405h488v95h-488v-95Z"/><path fill="#4193E7" d="M2064 946h488v94h-488v-94Z"/><path fill="#2FB2DF" d="M2064 0h488v94h-488V0Z"/><path fill="#4095E6" d="M64 946h384v94H64v-94Z"/><path fill="#3E99E5" d="M64 811h384v94H64v-94Z"/><path fill="#3B9EE4" d="M64 676h384v94H64v-94Z"/><path fill="#33ABE1" d="M64 270h384v94H64v-94Z"/></svg>